<svg id="Layer_1" data-name="Layer 1" xmlns="http://www.w3.org/2000/svg" width="338" height="100" viewBox="0 0 338 100"><defs><style>.cls-1{fill:#673ca0;}</style></defs><title>NYC Records and &amp; Information Services</title><polygon class="cls-1" points="226.4 36.32 228.9 33.85 228.9 26.34 221.39 18.83 196.37 18.83 188.86 26.34 188.86 21.34 186.36 18.83 176.35 18.83 173.85 21.34 173.85 26.34 168.84 31.35 163.84 26.34 163.84 21.34 161.33 18.83 151.32 18.83 148.82 21.34 146.32 18.83 136.31 18.83 133.81 21.34 133.81 31.35 121.3 18.83 111.29 18.83 108.78 21.34 108.78 56.37 111.29 58.87 121.3 58.87 123.8 56.37 123.8 46.36 136.31 58.87 146.32 58.87 148.82 56.37 148.82 36.35 161.33 48.86 161.33 56.37 163.84 58.87 173.85 58.87 176.35 56.37 176.35 48.86 188.86 36.35 188.86 51.36 196.37 58.87 221.39 58.87 228.9 51.36 228.9 43.86 226.4 41.35 213.89 41.35 213.89 43.86 203.88 43.86 203.88 33.85 213.89 33.85 213.89 36.32 226.4 36.32 226.4 36.32"/><path class="cls-1" d="M227.45,19.86h.17c.19,0,.35-.06.35-.22s-.1-.23-.32-.23l-.2,0v.43Zm0,.84h-.35V19.2a4,4,0,0,1,.57,0,.79.79,0,0,1,.52.12.37.37,0,0,1,.15.32A.38.38,0,0,1,228,20v0c.15.05.22.17.26.37a2,2,0,0,0,.11.36H228a1.11,1.11,0,0,1-.12-.36c0-.16-.12-.23-.31-.23h-.16v.59Zm-.93-.78a1.17,1.17,0,0,0,1.17,1.2,1.15,1.15,0,0,0,1.14-1.19,1.16,1.16,0,1,0-2.31,0Zm2.7,0a1.54,1.54,0,1,1-1.53-1.49,1.51,1.51,0,0,1,1.53,1.49Z"/><path d="M51.35,66.78H57c2,0,3.9.89,3.9,3.13a2.87,2.87,0,0,1-1.75,2.8v0c1.19.28,1.53,1.61,1.63,2.67,0,.47.07,2.11.46,2.51H58.4a5.56,5.56,0,0,1-.33-1.78c-.07-1.12-.26-2.28-1.62-2.28h-2.2v4.06h-2.9Zm2.9,4.84h2.44A1.2,1.2,0,0,0,58,70.3c0-.82-.66-1.2-1.47-1.2H54.25Z"/><path d="M64.37,74.52a1.72,1.72,0,0,0,1.81,1.84,1.58,1.58,0,0,0,1.51-.89h2.48c-.48,1.87-2.21,2.69-4,2.69a4.08,4.08,0,0,1-4.44-4.31,4.26,4.26,0,0,1,4.37-4.26c2.91,0,4.36,2.18,4.24,4.93ZM67.66,73a1.65,1.65,0,0,0-1.58-1.66A1.74,1.74,0,0,0,64.37,73Z"/><path d="M76.54,72.79a1.25,1.25,0,0,0-1.3-1.17c-1.48,0-1.72,1.26-1.72,2.38s.46,2.13,1.58,2.13a1.43,1.43,0,0,0,1.52-1.39h2.57a3.8,3.8,0,0,1-4.07,3.42A4,4,0,0,1,70.87,74a4.1,4.1,0,0,1,4.25-4.41c2,0,3.81,1.06,4,3.2Z"/><path d="M84,69.59a4.29,4.29,0,1,1-4.26,4.29A4.15,4.15,0,0,1,84,69.59Zm0,6.54c1.24,0,1.63-1.22,1.63-2.25s-.39-2.26-1.63-2.26-1.6,1.23-1.6,2.26S82.76,76.13,84,76.13Z"/><path d="M89.32,69.82H91.9v1.42h0a2.44,2.44,0,0,1,2.44-1.57,2.61,2.61,0,0,1,.62.06v2.42A3.49,3.49,0,0,0,94,72a1.86,1.86,0,0,0-2,1.92v4H89.32Z"/><path d="M103.66,77.92h-2.53V77h0a2.61,2.61,0,0,1-2.23,1.17c-2.55,0-3.62-2.19-3.62-4.47,0-2.11,1.12-4.1,3.41-4.1a2.71,2.71,0,0,1,2.31,1.1h0V66.78h2.66ZM97.9,73.79c0,1.1.4,2.34,1.62,2.34s1.58-1.24,1.58-2.27-.42-2.24-1.58-2.24S97.9,72.76,97.9,73.79Z"/><path d="M107.22,75.25a1.08,1.08,0,0,0,.44.91,1.64,1.64,0,0,0,1,.28c.52,0,1.25-.22,1.25-.86s-.83-.75-1.3-.86c-1.67-.42-3.76-.47-3.76-2.65,0-1.95,2.11-2.48,3.7-2.48,1.78,0,3.64.51,3.73,2.62h-2.45a.76.76,0,0,0-.34-.7,1.59,1.59,0,0,0-.84-.21c-.44,0-1.14,0-1.14.61,0,.77,1.78.91,3,1.17a2.3,2.3,0,0,1,2.06,2.19c0,2.17-2.06,2.89-3.88,2.89s-3.89-.64-4-2.91Z"/><path d="M124.53,77a4.77,4.77,0,0,1-3.2,1.17,3.49,3.49,0,0,1-3.72-3.41,3.72,3.72,0,0,1,2.53-3.24,3.21,3.21,0,0,1-1-2.14,3,3,0,0,1,3.18-2.83,3,3,0,0,1,3.15,2.89,3.06,3.06,0,0,1-1.9,2.76l1.16,1.39a2.66,2.66,0,0,0,.4-1.09h2.28a4.73,4.73,0,0,1-1.23,2.72l2.34,2.71h-3.23Zm-3.06-3.74c-.55.25-1.3.8-1.3,1.47A1.39,1.39,0,0,0,121.64,76a2.52,2.52,0,0,0,1.48-.79Zm1.85-4a.91.91,0,0,0-1.81,0c0,.61.44,1,.78,1.41C122.84,70.32,123.32,70,123.32,69.27Z"/><path d="M133.48,66.78h2.9V77.92h-2.9Z"/><path d="M137.94,69.82h2.58v1.11h0a3.05,3.05,0,0,1,2.55-1.34c2.7,0,2.91,2,2.91,3.13v5.2h-2.65V74c0-1.1.13-2.23-1.33-2.23-1,0-1.43.85-1.43,1.73v4.42h-2.66Z"/><path d="M147.87,71.54h-1.28V69.82h1.28c0-2.32.81-3,3.07-3,.42,0,.86,0,1.28,0V68.7a5.94,5.94,0,0,0-.72,0c-.61,0-1,.08-1,.81v.36h1.59v1.72h-1.59v6.38h-2.65Z"/><path d="M156.46,69.59a4.29,4.29,0,1,1-4.26,4.29A4.15,4.15,0,0,1,156.46,69.59Zm0,6.54c1.24,0,1.63-1.22,1.63-2.25s-.39-2.26-1.63-2.26-1.61,1.23-1.61,2.26S155.23,76.13,156.46,76.13Z"/><path d="M161.79,69.82h2.58v1.42h0a2.43,2.43,0,0,1,2.43-1.57,2.64,2.64,0,0,1,.63.06v2.42a3.56,3.56,0,0,0-1-.16,1.86,1.86,0,0,0-2,1.92v4h-2.66Z"/><path d="M168,69.82h2.58v1.11h0a2.71,2.71,0,0,1,2.33-1.34,2.32,2.32,0,0,1,2.35,1.31,3,3,0,0,1,2.53-1.31c2.58,0,2.86,2,2.86,3.49v4.84H178V73.16c0-.87-.43-1.39-1.11-1.39-1.14,0-1.25.88-1.25,2.19v4H173v-4.6c0-.95-.29-1.55-1-1.55-1,0-1.36.55-1.36,2.2v4H168Z"/><path d="M182,72.32a2.5,2.5,0,0,1,1.27-2.17,5.28,5.28,0,0,1,2.57-.56c1.92,0,3.78.42,3.78,2.71v3.55a4.73,4.73,0,0,0,.31,2.07h-2.67a3.3,3.3,0,0,1-.15-.76,3.65,3.65,0,0,1-2.67,1c-1.55,0-2.76-.78-2.76-2.45,0-2.64,2.87-2.44,4.71-2.81.45-.1.7-.25.7-.75s-.73-.85-1.28-.85a1.2,1.2,0,0,0-1.33,1Zm3.44,4.2c1.26,0,1.68-.72,1.62-2.39a7.85,7.85,0,0,1-1.64.44c-.59.14-1.09.39-1.09,1S184.82,76.52,185.42,76.52Z"/><path d="M195.79,71.54h-1.64v3.68c0,.64.38.78.95.78.22,0,.46,0,.69,0v2c-.48,0-1,.08-1.45.08-2.26,0-2.84-.66-2.84-2.86v-3.6h-1.34V69.82h1.34V67.37h2.65v2.45h1.64Z"/><path d="M199.47,68.81h-2.66v-2h2.66Zm-2.66,1h2.66v8.1h-2.66Z"/><path d="M204.78,69.59a4.29,4.29,0,1,1-4.26,4.29A4.15,4.15,0,0,1,204.78,69.59Zm0,6.54c1.23,0,1.62-1.22,1.62-2.25s-.39-2.26-1.62-2.26-1.61,1.23-1.61,2.26S203.55,76.13,204.78,76.13Z"/><path d="M210.06,69.82h2.58v1.11h0a3,3,0,0,1,2.54-1.34c2.7,0,2.92,2,2.92,3.13v5.2h-2.65V74c0-1.1.12-2.23-1.33-2.23-1,0-1.43.85-1.43,1.73v4.42h-2.66Z"/><path d="M226.4,74.18c.06,1.31.87,1.73,2.11,1.73.87,0,1.78-.31,1.78-1.14s-1.6-1.17-3.2-1.62-3.27-1.17-3.27-3.22c0-2.43,2.45-3.39,4.55-3.39s4.44,1.08,4.46,3.59h-2.9c0-1-.91-1.34-1.8-1.34-.62,0-1.4.22-1.4.95s1.6,1,3.23,1.47,3.23,1.2,3.23,3.22c0,2.82-2.4,3.73-4.86,3.73s-4.82-1.13-4.83-4Z"/><path d="M236.42,74.52a1.72,1.72,0,0,0,1.81,1.84,1.58,1.58,0,0,0,1.51-.89h2.48c-.48,1.87-2.21,2.69-4,2.69a4.08,4.08,0,0,1-4.44-4.31,4.26,4.26,0,0,1,4.37-4.26c2.91,0,4.36,2.18,4.24,4.93ZM239.71,73a1.65,1.65,0,0,0-1.58-1.66A1.74,1.74,0,0,0,236.42,73Z"/><path d="M243.36,69.82h2.58v1.42h0a2.44,2.44,0,0,1,2.43-1.57,2.64,2.64,0,0,1,.63.06v2.42a3.51,3.51,0,0,0-1-.16,1.86,1.86,0,0,0-2,1.92v4h-2.66Z"/><path d="M254.86,77.92H251.8l-2.7-8.1h2.76l1.48,5.35h0l1.49-5.35h2.7Z"/><path d="M260.78,68.81h-2.66v-2h2.66Zm-2.66,1h2.66v8.1h-2.66Z"/><path d="M267.49,72.79a1.24,1.24,0,0,0-1.29-1.17c-1.49,0-1.72,1.26-1.72,2.38s.45,2.13,1.58,2.13a1.42,1.42,0,0,0,1.51-1.39h2.58a3.8,3.8,0,0,1-4.08,3.42A4,4,0,0,1,261.83,74a4.1,4.1,0,0,1,4.24-4.41c2,0,3.81,1.06,4,3.2Z"/><path d="M273.34,74.52a1.73,1.73,0,0,0,1.81,1.84,1.6,1.6,0,0,0,1.52-.89h2.48c-.48,1.87-2.22,2.69-4,2.69a4.08,4.08,0,0,1-4.43-4.31,4.25,4.25,0,0,1,4.37-4.26c2.9,0,4.35,2.18,4.23,4.93Zm3.3-1.48a1.65,1.65,0,0,0-1.58-1.66A1.75,1.75,0,0,0,273.34,73Z"/><path d="M282.32,75.25a1.1,1.1,0,0,0,.43.91,1.65,1.65,0,0,0,1,.28c.51,0,1.25-.22,1.25-.86s-.83-.75-1.3-.86c-1.67-.42-3.76-.47-3.76-2.65,0-1.95,2.11-2.48,3.7-2.48,1.78,0,3.64.51,3.73,2.62h-2.45a.78.78,0,0,0-.34-.7,1.6,1.6,0,0,0-.85-.21c-.43,0-1.14,0-1.14.61,0,.77,1.78.91,3,1.17a2.3,2.3,0,0,1,2.06,2.19c0,2.17-2.06,2.89-3.89,2.89s-3.88-.64-4-2.91Z"/></svg>